# xmcd
#
# Track frame offsets:
#	182
#	17610
#	28250
#	43355
#	53082
#	63947
#	73750
#	98102
#	110840
#	122255
#	153710
#	167707
#	182337
#	196147
#	206777
#	223837
#	241052
#	259275
#	274317
#
# Disc length: 3839 seconds
#
# Revision: 0
# Processed by: cddbd v1.4PL0 Copyright (c) Steve Scherf et al.
# Submitted via: EasyCDDAExtractor 4.5.0.2
#
DISCID=1c0efd13
DTITLE=PATRICK VERBECKE - Tais toi et rame.../...bec vert
DYEAR=1993
DGENRE=Blues
TTITLE0=Descends De Ta Planéte
TTITLE1=Tais Toi Et Rame
TTITLE2=Gazoline
TTITLE3=Bourdonne
TTITLE4=Laisse Tomber Ce Pétard
TTITLE5=Je Marche Doucement
TTITLE6=Athis-mons Blues
TTITLE7=One Kinda Favor
TTITLE8=La Tangente
TTITLE9=J'peux Pas L'oublier
TTITLE10=Je Chante Doucement
TTITLE11=Le Choc
TTITLE12=Courir Aprés La Money
TTITLE13=Boppin' Charlie
TTITLE14=Muddy Waters
TTITLE15=épique époque
TTITLE16=Se Sentir Bien
TTITLE17=Paris 450
TTITLE18=T'as Décidé
EXTD=
EXTT0=
EXTT1=
EXTT2=
EXTT3=
EXTT4=
EXTT5=
EXTT6=
EXTT7=
EXTT8=
EXTT9=
EXTT10=
EXTT11=
EXTT12=
EXTT13=
EXTT14=
EXTT15=
EXTT16=
EXTT17=
EXTT18=
PLAYORDER=
